<svg width="78" height="70" viewBox="0 0 78 70" fill="none" xmlns="http://www.w3.org/2000/svg">
<path d="M78 10.6C78 7.94781 76.9464 5.40427 75.0711 3.52891C73.1957 1.65354 70.6522 0.599976 68 0.599976H10C7.34784 0.599976 4.8043 1.65354 2.92893 3.52891C1.05357 5.40427 0 7.94781 0 10.6V41.3C0 43.9521 1.05357 46.4957 2.92893 48.371C4.8043 50.2464 7.34784 51.3 10 51.3H20.2V67.4C20.185 67.7751 20.2815 68.1463 20.4772 68.4667C20.673 68.787 20.9593 69.0422 21.3 69.2L22.2 69.4C22.6776 69.3861 23.1362 69.2097 23.5 68.9L44.7 51.3H68C70.6522 51.3 73.1957 50.2464 75.0711 48.371C76.9464 46.4957 78 43.9521 78 41.3V10.6ZM74 41.3C74 42.8913 73.3679 44.4174 72.2426 45.5426C71.1174 46.6678 69.5913 47.3 68 47.3H43.9C43.4634 47.274 43.0337 47.4173 42.7 47.7L24.2 63.1V49.3C24.2 48.7695 23.9893 48.2608 23.6142 47.8858C23.2391 47.5107 22.7304 47.3 22.2 47.3H10C8.4087 47.3 6.88258 46.6678 5.75736 45.5426C4.63214 44.4174 4 42.8913 4 41.3V10.6C4 9.00868 4.63214 7.48255 5.75736 6.35733C6.88258 5.23212 8.4087 4.59998 10 4.59998H68C69.5913 4.59998 71.1174 5.23212 72.2426 6.35733C73.3679 7.48255 74 9.00868 74 10.6V41.3Z" fill="white"/>
<path d="M18.3 19.8H40.5C41.0305 19.8 41.5392 19.5893 41.9143 19.2142C42.2893 18.8391 42.5 18.3304 42.5 17.8C42.5 17.2696 42.2893 16.7608 41.9143 16.3858C41.5392 16.0107 41.0305 15.8 40.5 15.8H18.3C17.7696 15.8 17.2609 16.0107 16.8858 16.3858C16.5108 16.7608 16.3 17.2696 16.3 17.8C16.3 18.3304 16.5108 18.8391 16.8858 19.2142C17.2609 19.5893 17.7696 19.8 18.3 19.8Z" fill="white"/>
<path d="M59.7 30.2H18.3C17.7696 30.2 17.2609 30.4107 16.8858 30.7857C16.5108 31.1608 16.3 31.6695 16.3 32.2C16.3 32.7304 16.5108 33.2391 16.8858 33.6142C17.2609 33.9892 17.7696 34.2 18.3 34.2H59.7C60.2305 34.2 60.7392 33.9892 61.1143 33.6142C61.4893 33.2391 61.7 32.7304 61.7 32.2C61.7 31.6695 61.4893 31.1608 61.1143 30.7857C60.7392 30.4107 60.2305 30.2 59.7 30.2Z" fill="white"/>
</svg>