<svg width="110" height="135" viewBox="0 0 110 135" fill="none" xmlns="http://www.w3.org/2000/svg">
<path d="M88.5778 10.7812H21.4218C12.7968 10.7812 5.78076 17.7969 5.78076 26.4223V93.5782C5.78076 102.203 12.7964 109.219 21.4218 109.219H88.5778C97.2028 109.219 104.219 102.204 104.219 93.5782V26.4223C104.219 17.7973 97.2032 10.7812 88.5778 10.7812ZM13.5938 93.5782V26.4223C13.5938 22.1098 17.1094 18.5941 21.4219 18.5941H36.8439V101.406H21.4219C17.1094 101.406 13.5938 97.8907 13.5938 93.5782ZM96.4058 93.5782C96.4058 97.8907 92.8902 101.406 88.5777 101.406H44.6557V18.5943H88.5777C92.8902 18.5943 96.4058 22.1099 96.4058 26.4224V93.5782Z" fill="white"/>
</svg>
